<svg xmlns="http://www.w3.org/2000/svg" version="1.1" xmlns:xlink="http://www.w3.org/1999/xlink" xmlns:svgjs="http://svgjs.com/svgjs" width="1440" height="560" preserveAspectRatio="none" viewBox="0 0 1440 560"><g mask="url(&quot;#SvgjsMask1014&quot;)" fill="none"><rect width="1440" height="560" x="0" y="0" fill="rgba(5, 5, 5, 1)"></rect><path d="M-67.88 402.65L-67.88 402.65" stroke="rgba(33, 26, 15, 1)" stroke-width="1.5"></path><path d="M-67.88 402.65L45.05 340.24" stroke="rgba(33, 26, 15, 1)" stroke-width="1.5"></path><path d="M-67.88 402.65L-111.58 533.26" stroke="rgba(33, 26, 15, 1)" stroke-width="1.5"></path><path d="M-67.88 402.65L106.51 534.83" stroke="rgba(33, 26, 15, 1)" stroke-width="1.5"></path><path d="M-67.88 402.65L-60.52 656.05" stroke="rgba(33, 26, 15, 1)" stroke-width="1.5"></path><path d="M-67.88 402.65L215.85 507.86" stroke="rgba(33, 26, 15, 1)" stroke-width="1.5"></path><path d="M-111.58 533.26L-111.58 533.26" stroke="rgba(33, 26, 15, 1)" stroke-width="1.5"></path><path d="M-111.58 533.26L-60.52 656.05" stroke="rgba(33, 26, 15, 1)" stroke-width="1.5"></path><path d="M-111.58 533.26L106.51 534.83" stroke="rgba(33, 26, 15, 1)" stroke-width="1.5"></path><path d="M-111.58 533.26L45.05 340.24" stroke="rgba(33, 26, 15, 1)" stroke-width="1.5"></path><path d="M-60.52 656.05L-60.52 656.05" stroke="rgba(33, 26, 15, 1)" stroke-width="1.5"></path><path d="M-60.52 656.05L96.59 669.19" stroke="rgba(33, 26, 15, 1)" stroke-width="1.5"></path><path d="M-60.52 656.05L106.51 534.83" stroke="rgba(33, 26, 15, 1)" stroke-width="1.5"></path><path d="M-60.52 656.05L210.07 705.31" stroke="rgba(33, 26, 15, 1)" stroke-width="1.5"></path><path d="M-60.52 656.05L215.85 507.86" stroke="rgba(33, 26, 15, 1)" stroke-width="1.5"></path><path d="M45.05 340.24L45.05 340.24" stroke="rgba(33, 26, 15, 1)" stroke-width="1.5"></path><path d="M45.05 340.24L106.51 534.83" stroke="rgba(33, 26, 15, 1)" stroke-width="1.5"></path><path d="M45.05 340.24L256.18 360.99" stroke="rgba(33, 26, 15, 1)" stroke-width="1.5"></path><path d="M45.05 340.24L215.85 507.86" stroke="rgba(33, 26, 15, 1)" stroke-width="1.5"></path><path d="M106.51 534.83L106.51 534.83" stroke="rgba(33, 26, 15, 1)" stroke-width="1.5"></path><path d="M106.51 534.83L215.85 507.86" stroke="rgba(33, 26, 15, 1)" stroke-width="1.5"></path><path d="M106.51 534.83L96.59 669.19" stroke="rgba(33, 26, 15, 1)" stroke-width="1.5"></path><path d="M106.51 534.83L210.07 705.31" stroke="rgba(33, 26, 15, 1)" stroke-width="1.5"></path><path d="M96.59 669.19L96.59 669.19" stroke="rgba(33, 26, 15, 1)" stroke-width="1.5"></path><path d="M96.59 669.19L210.07 705.31" stroke="rgba(33, 26, 15, 1)" stroke-width="1.5"></path><path d="M96.59 669.19L215.85 507.86" stroke="rgba(33, 26, 15, 1)" stroke-width="1.5"></path><path d="M256.18 360.99L256.18 360.99" stroke="rgba(33, 26, 15, 1)" stroke-width="1.5"></path><path d="M256.18 360.99L363.25 406.85" stroke="rgba(33, 26, 15, 1)" stroke-width="1.5"></path><path d="M256.18 360.99L215.85 507.86" stroke="rgba(33, 26, 15, 1)" stroke-width="1.5"></path><path d="M256.18 360.99L372.81 507.82" stroke="rgba(33, 26, 15, 1)" stroke-width="1.5"></path><path d="M215.85 507.86L215.85 507.86" stroke="rgba(33, 26, 15, 1)" stroke-width="1.5"></path><path d="M215.85 507.86L372.81 507.82" stroke="rgba(33, 26, 15, 1)" stroke-width="1.5"></path><path d="M215.85 507.86L363.25 406.85" stroke="rgba(33, 26, 15, 1)" stroke-width="1.5"></path><path d="M215.85 507.86L210.07 705.31" stroke="rgba(33, 26, 15, 1)" stroke-width="1.5"></path><path d="M210.07 705.31L210.07 705.31" stroke="rgba(33, 26, 15, 1)" stroke-width="1.5"></path><path d="M210.07 705.31L392.87 708.15" stroke="rgba(33, 26, 15, 1)" stroke-width="1.5"></path><path d="M210.07 705.31L372.81 507.82" stroke="rgba(33, 26, 15, 1)" stroke-width="1.5"></path><path d="M363.25 406.85L363.25 406.85" stroke="rgba(33, 26, 15, 1)" stroke-width="1.5"></path><path d="M363.25 406.85L372.81 507.82" stroke="rgba(33, 26, 15, 1)" stroke-width="1.5"></path><path d="M363.25 406.85L533.83 406.32" stroke="rgba(33, 26, 15, 1)" stroke-width="1.5"></path><path d="M363.25 406.85L549.85 504.63" stroke="rgba(33, 26, 15, 1)" stroke-width="1.5"></path><path d="M372.81 507.82L372.81 507.82" stroke="rgba(33, 26, 15, 1)" stroke-width="1.5"></path><path d="M372.81 507.82L549.85 504.63" stroke="rgba(33, 26, 15, 1)" stroke-width="1.5"></path><path d="M372.81 507.82L533.83 406.32" stroke="rgba(33, 26, 15, 1)" stroke-width="1.5"></path><path d="M372.81 507.82L392.87 708.15" stroke="rgba(33, 26, 15, 1)" stroke-width="1.5"></path><path d="M392.87 708.15L392.87 708.15" stroke="rgba(33, 26, 15, 1)" stroke-width="1.5"></path><path d="M392.87 708.15L517.93 705.33" stroke="rgba(33, 26, 15, 1)" stroke-width="1.5"></path><path d="M533.83 406.32L533.83 406.32" stroke="rgba(33, 26, 15, 1)" stroke-width="1.5"></path><path d="M533.83 406.32L549.85 504.63" stroke="rgba(33, 26, 15, 1)" stroke-width="1.5"></path><path d="M533.83 406.32L669.54 389.36" stroke="rgba(33, 26, 15, 1)" stroke-width="1.5"></path><path d="M533.83 406.32L693.1 498.02" stroke="rgba(33, 26, 15, 1)" stroke-width="1.5"></path><path d="M549.85 504.63L549.85 504.63" stroke="rgba(33, 26, 15, 1)" stroke-width="1.5"></path><path d="M549.85 504.63L693.1 498.02" stroke="rgba(33, 26, 15, 1)" stroke-width="1.5"></path><path d="M549.85 504.63L669.54 389.36" stroke="rgba(33, 26, 15, 1)" stroke-width="1.5"></path><path d="M517.93 705.33L517.93 705.33" stroke="rgba(33, 26, 15, 1)" stroke-width="1.5"></path><path d="M517.93 705.33L668.24 645.36" stroke="rgba(33, 26, 15, 1)" stroke-width="1.5"></path><path d="M517.93 705.33L549.85 504.63" stroke="rgba(33, 26, 15, 1)" stroke-width="1.5"></path><path d="M689.24 237.78L689.24 237.78" stroke="rgba(33, 26, 15, 1)" stroke-width="1.5"></path><path d="M689.24 237.78L669.54 389.36" stroke="rgba(33, 26, 15, 1)" stroke-width="1.5"></path><path d="M689.24 237.78L840.52 260.82" stroke="rgba(33, 26, 15, 1)" stroke-width="1.5"></path><path d="M689.24 237.78L858.81 365.17" stroke="rgba(33, 26, 15, 1)" stroke-width="1.5"></path><path d="M689.24 237.78L533.83 406.32" stroke="rgba(33, 26, 15, 1)" stroke-width="1.5"></path><path d="M689.24 237.78L693.1 498.02" stroke="rgba(33, 26, 15, 1)" stroke-width="1.5"></path><path d="M669.54 389.36L669.54 389.36" stroke="rgba(33, 26, 15, 1)" stroke-width="1.5"></path><path d="M669.54 389.36L693.1 498.02" stroke="rgba(33, 26, 15, 1)" stroke-width="1.5"></path><path d="M693.1 498.02L693.1 498.02" stroke="rgba(33, 26, 15, 1)" stroke-width="1.5"></path><path d="M693.1 498.02L826.95 517.41" stroke="rgba(33, 26, 15, 1)" stroke-width="1.5"></path><path d="M668.24 645.36L668.24 645.36" stroke="rgba(33, 26, 15, 1)" stroke-width="1.5"></path><path d="M668.24 645.36L807.54 676.34" stroke="rgba(33, 26, 15, 1)" stroke-width="1.5"></path><path d="M668.24 645.36L693.1 498.02" stroke="rgba(33, 26, 15, 1)" stroke-width="1.5"></path><path d="M840.52 260.82L840.52 260.82" stroke="rgba(33, 26, 15, 1)" stroke-width="1.5"></path><path d="M840.52 260.82L858.81 365.17" stroke="rgba(33, 26, 15, 1)" stroke-width="1.5"></path><path d="M840.52 260.82L995.86 216.24" stroke="rgba(33, 26, 15, 1)" stroke-width="1.5"></path><path d="M840.52 260.82L969.47 398.97" stroke="rgba(33, 26, 15, 1)" stroke-width="1.5"></path><path d="M840.52 260.82L669.54 389.36" stroke="rgba(33, 26, 15, 1)" stroke-width="1.5"></path><path d="M840.52 260.82L996.29 88.72" stroke="rgba(33, 26, 15, 1)" stroke-width="1.5"></path><path d="M858.81 365.17L858.81 365.17" stroke="rgba(33, 26, 15, 1)" stroke-width="1.5"></path><path d="M858.81 365.17L969.47 398.97" stroke="rgba(33, 26, 15, 1)" stroke-width="1.5"></path><path d="M826.95 517.41L826.95 517.41" stroke="rgba(33, 26, 15, 1)" stroke-width="1.5"></path><path d="M826.95 517.41L941.37 523.26" stroke="rgba(33, 26, 15, 1)" stroke-width="1.5"></path><path d="M826.95 517.41L858.81 365.17" stroke="rgba(33, 26, 15, 1)" stroke-width="1.5"></path><path d="M826.95 517.41L807.54 676.34" stroke="rgba(33, 26, 15, 1)" stroke-width="1.5"></path><path d="M826.95 517.41L969.47 398.97" stroke="rgba(33, 26, 15, 1)" stroke-width="1.5"></path><path d="M807.54 676.34L807.54 676.34" stroke="rgba(33, 26, 15, 1)" stroke-width="1.5"></path><path d="M807.54 676.34L991.95 654.37" stroke="rgba(33, 26, 15, 1)" stroke-width="1.5"></path><path d="M1003.97 -80.43L1003.97 -80.43" stroke="rgba(33, 26, 15, 1)" stroke-width="1.5"></path><path d="M1003.97 -80.43L1090.49 -76.77" stroke="rgba(33, 26, 15, 1)" stroke-width="1.5"></path><path d="M1003.97 -80.43L1110.5 45.86" stroke="rgba(33, 26, 15, 1)" stroke-width="1.5"></path><path d="M996.29 88.72L996.29 88.72" stroke="rgba(33, 26, 15, 1)" stroke-width="1.5"></path><path d="M996.29 88.72L1110.5 45.86" stroke="rgba(33, 26, 15, 1)" stroke-width="1.5"></path><path d="M996.29 88.72L995.86 216.24" stroke="rgba(33, 26, 15, 1)" stroke-width="1.5"></path><path d="M996.29 88.72L1104.03 208.18" stroke="rgba(33, 26, 15, 1)" stroke-width="1.5"></path><path d="M995.86 216.24L995.86 216.24" stroke="rgba(33, 26, 15, 1)" stroke-width="1.5"></path><path d="M995.86 216.24L1104.03 208.18" stroke="rgba(33, 26, 15, 1)" stroke-width="1.5"></path><path d="M995.86 216.24L969.47 398.97" stroke="rgba(33, 26, 15, 1)" stroke-width="1.5"></path><path d="M969.47 398.97L969.47 398.97" stroke="rgba(33, 26, 15, 1)" stroke-width="1.5"></path><path d="M969.47 398.97L941.37 523.26" stroke="rgba(33, 26, 15, 1)" stroke-width="1.5"></path><path d="M941.37 523.26L941.37 523.26" stroke="rgba(33, 26, 15, 1)" stroke-width="1.5"></path><path d="M991.95 654.37L991.95 654.37" stroke="rgba(33, 26, 15, 1)" stroke-width="1.5"></path><path d="M991.95 654.37L941.37 523.26" stroke="rgba(33, 26, 15, 1)" stroke-width="1.5"></path><path d="M991.95 654.37L1128.37 704.86" stroke="rgba(33, 26, 15, 1)" stroke-width="1.5"></path><path d="M1090.49 -76.77L1090.49 -76.77" stroke="rgba(33, 26, 15, 1)" stroke-width="1.5"></path><path d="M1090.49 -76.77L1110.5 45.86" stroke="rgba(33, 26, 15, 1)" stroke-width="1.5"></path><path d="M1110.5 45.86L1110.5 45.86" stroke="rgba(33, 26, 15, 1)" stroke-width="1.5"></path><path d="M1110.5 45.86L1249.31 100.48" stroke="rgba(33, 26, 15, 1)" stroke-width="1.5"></path><path d="M1110.5 45.86L1104.03 208.18" stroke="rgba(33, 26, 15, 1)" stroke-width="1.5"></path><path d="M1104.03 208.18L1104.03 208.18" stroke="rgba(33, 26, 15, 1)" stroke-width="1.5"></path><path d="M1125.69 384.55L1125.69 384.55" stroke="rgba(33, 26, 15, 1)" stroke-width="1.5"></path><path d="M1125.69 384.55L1143.97 522.95" stroke="rgba(33, 26, 15, 1)" stroke-width="1.5"></path><path d="M1125.69 384.55L969.47 398.97" stroke="rgba(33, 26, 15, 1)" stroke-width="1.5"></path><path d="M1143.97 522.95L1143.97 522.95" stroke="rgba(33, 26, 15, 1)" stroke-width="1.5"></path><path d="M1143.97 522.95L1274.25 490.85" stroke="rgba(33, 26, 15, 1)" stroke-width="1.5"></path><path d="M1128.37 704.86L1128.37 704.86" stroke="rgba(33, 26, 15, 1)" stroke-width="1.5"></path><path d="M1128.37 704.86L1298.34 700.54" stroke="rgba(33, 26, 15, 1)" stroke-width="1.5"></path><path d="M1128.37 704.86L1143.97 522.95" stroke="rgba(33, 26, 15, 1)" stroke-width="1.5"></path><path d="M1128.37 704.86L1274.25 490.85" stroke="rgba(33, 26, 15, 1)" stroke-width="1.5"></path><path d="M1128.37 704.86L941.37 523.26" stroke="rgba(33, 26, 15, 1)" stroke-width="1.5"></path><path d="M1278.09 -85.44L1278.09 -85.44" stroke="rgba(33, 26, 15, 1)" stroke-width="1.5"></path><path d="M1278.09 -85.44L1446.45 -52.14" stroke="rgba(33, 26, 15, 1)" stroke-width="1.5"></path><path d="M1278.09 -85.44L1090.49 -76.77" stroke="rgba(33, 26, 15, 1)" stroke-width="1.5"></path><path d="M1278.09 -85.44L1249.31 100.48" stroke="rgba(33, 26, 15, 1)" stroke-width="1.5"></path><path d="M1278.09 -85.44L1110.5 45.86" stroke="rgba(33, 26, 15, 1)" stroke-width="1.5"></path><path d="M1249.31 100.48L1249.31 100.48" stroke="rgba(33, 26, 15, 1)" stroke-width="1.5"></path><path d="M1249.31 100.48L1300.95 198.63" stroke="rgba(33, 26, 15, 1)" stroke-width="1.5"></path><path d="M1249.31 100.48L1104.03 208.18" stroke="rgba(33, 26, 15, 1)" stroke-width="1.5"></path><path d="M1249.31 100.48L1417.01 200.84" stroke="rgba(33, 26, 15, 1)" stroke-width="1.5"></path><path d="M1300.95 198.63L1300.95 198.63" stroke="rgba(33, 26, 15, 1)" stroke-width="1.5"></path><path d="M1300.95 198.63L1417.01 200.84" stroke="rgba(33, 26, 15, 1)" stroke-width="1.5"></path><path d="M1300.95 198.63L1453.55 104.46" stroke="rgba(33, 26, 15, 1)" stroke-width="1.5"></path><path d="M1300.95 198.63L1302.73 382.48" stroke="rgba(33, 26, 15, 1)" stroke-width="1.5"></path><path d="M1302.73 382.48L1302.73 382.48" stroke="rgba(33, 26, 15, 1)" stroke-width="1.5"></path><path d="M1302.73 382.48L1274.25 490.85" stroke="rgba(33, 26, 15, 1)" stroke-width="1.5"></path><path d="M1302.73 382.48L1415.91 375.88" stroke="rgba(33, 26, 15, 1)" stroke-width="1.5"></path><path d="M1302.73 382.48L1125.69 384.55" stroke="rgba(33, 26, 15, 1)" stroke-width="1.5"></path><path d="M1302.73 382.48L1422.78 520.24" stroke="rgba(33, 26, 15, 1)" stroke-width="1.5"></path><path d="M1274.25 490.85L1274.25 490.85" stroke="rgba(33, 26, 15, 1)" stroke-width="1.5"></path><path d="M1274.25 490.85L1422.78 520.24" stroke="rgba(33, 26, 15, 1)" stroke-width="1.5"></path><path d="M1298.34 700.54L1298.34 700.54" stroke="rgba(33, 26, 15, 1)" stroke-width="1.5"></path><path d="M1298.34 700.54L1416.99 684.85" stroke="rgba(33, 26, 15, 1)" stroke-width="1.5"></path><path d="M1298.34 700.54L1274.25 490.85" stroke="rgba(33, 26, 15, 1)" stroke-width="1.5"></path><path d="M1298.34 700.54L1422.78 520.24" stroke="rgba(33, 26, 15, 1)" stroke-width="1.5"></path><path d="M1298.34 700.54L1143.97 522.95" stroke="rgba(33, 26, 15, 1)" stroke-width="1.5"></path><path d="M1446.45 -52.14L1446.45 -52.14" stroke="rgba(33, 26, 15, 1)" stroke-width="1.5"></path><path d="M1446.45 -52.14L1543.95 -98.76" stroke="rgba(33, 26, 15, 1)" stroke-width="1.5"></path><path d="M1446.45 -52.14L1453.55 104.46" stroke="rgba(33, 26, 15, 1)" stroke-width="1.5"></path><path d="M1446.45 -52.14L1564.91 54.34" stroke="rgba(33, 26, 15, 1)" stroke-width="1.5"></path><path d="M1446.45 -52.14L1249.31 100.48" stroke="rgba(33, 26, 15, 1)" stroke-width="1.5"></path><path d="M1446.45 -52.14L1417.01 200.84" stroke="rgba(33, 26, 15, 1)" stroke-width="1.5"></path><path d="M1453.55 104.46L1453.55 104.46" stroke="rgba(33, 26, 15, 1)" stroke-width="1.5"></path><path d="M1453.55 104.46L1417.01 200.84" stroke="rgba(33, 26, 15, 1)" stroke-width="1.5"></path><path d="M1453.55 104.46L1564.91 54.34" stroke="rgba(33, 26, 15, 1)" stroke-width="1.5"></path><path d="M1417.01 200.84L1417.01 200.84" stroke="rgba(33, 26, 15, 1)" stroke-width="1.5"></path><path d="M1417.01 200.84L1555.02 193.47" stroke="rgba(33, 26, 15, 1)" stroke-width="1.5"></path><path d="M1417.01 200.84L1415.91 375.88" stroke="rgba(33, 26, 15, 1)" stroke-width="1.5"></path><path d="M1415.91 375.88L1415.91 375.88" stroke="rgba(33, 26, 15, 1)" stroke-width="1.5"></path><path d="M1415.91 375.88L1422.78 520.24" stroke="rgba(33, 26, 15, 1)" stroke-width="1.5"></path><path d="M1422.78 520.24L1422.78 520.24" stroke="rgba(33, 26, 15, 1)" stroke-width="1.5"></path><path d="M1422.78 520.24L1567.11 525.93" stroke="rgba(33, 26, 15, 1)" stroke-width="1.5"></path><path d="M1422.78 520.24L1416.99 684.85" stroke="rgba(33, 26, 15, 1)" stroke-width="1.5"></path><path d="M1416.99 684.85L1416.99 684.85" stroke="rgba(33, 26, 15, 1)" stroke-width="1.5"></path><path d="M1416.99 684.85L1601.34 708.4" stroke="rgba(33, 26, 15, 1)" stroke-width="1.5"></path><path d="M1416.99 684.85L1567.11 525.93" stroke="rgba(33, 26, 15, 1)" stroke-width="1.5"></path><path d="M1416.99 684.85L1274.25 490.85" stroke="rgba(33, 26, 15, 1)" stroke-width="1.5"></path><path d="M1543.95 -98.76L1543.95 -98.76" stroke="rgba(33, 26, 15, 1)" stroke-width="1.5"></path><path d="M1543.95 -98.76L1564.91 54.34" stroke="rgba(33, 26, 15, 1)" stroke-width="1.5"></path><path d="M1543.95 -98.76L1453.55 104.46" stroke="rgba(33, 26, 15, 1)" stroke-width="1.5"></path><path d="M1543.95 -98.76L1278.09 -85.44" stroke="rgba(33, 26, 15, 1)" stroke-width="1.5"></path><path d="M1543.95 -98.76L1555.02 193.47" stroke="rgba(33, 26, 15, 1)" stroke-width="1.5"></path><path d="M1543.95 -98.76L1417.01 200.84" stroke="rgba(33, 26, 15, 1)" stroke-width="1.5"></path><path d="M1564.91 54.34L1564.91 54.34" stroke="rgba(33, 26, 15, 1)" stroke-width="1.5"></path><path d="M1564.91 54.34L1555.02 193.47" stroke="rgba(33, 26, 15, 1)" stroke-width="1.5"></path><path d="M1555.02 193.47L1555.02 193.47" stroke="rgba(33, 26, 15, 1)" stroke-width="1.5"></path><path d="M1555.02 193.47L1453.55 104.46" stroke="rgba(33, 26, 15, 1)" stroke-width="1.5"></path><path d="M1587.52 345.65L1587.52 345.65" stroke="rgba(33, 26, 15, 1)" stroke-width="1.5"></path><path d="M1587.52 345.65L1555.02 193.47" stroke="rgba(33, 26, 15, 1)" stroke-width="1.5"></path><path d="M1587.52 345.65L1415.91 375.88" stroke="rgba(33, 26, 15, 1)" stroke-width="1.5"></path><path d="M1587.52 345.65L1567.11 525.93" stroke="rgba(33, 26, 15, 1)" stroke-width="1.5"></path><path d="M1567.11 525.93L1567.11 525.93" stroke="rgba(33, 26, 15, 1)" stroke-width="1.5"></path><path d="M1567.11 525.93L1601.34 708.4" stroke="rgba(33, 26, 15, 1)" stroke-width="1.5"></path><path d="M1567.11 525.93L1415.91 375.88" stroke="rgba(33, 26, 15, 1)" stroke-width="1.5"></path><path d="M1601.34 708.4L1601.34 708.4" stroke="rgba(33, 26, 15, 1)" stroke-width="1.5"></path><circle r="5" cx="-67.88" cy="402.65" fill="rgba(33, 26, 15, 1)"></circle><circle r="5" cx="-111.58" cy="533.26" fill="rgba(33, 26, 15, 1)"></circle><circle r="5" cx="-60.52" cy="656.05" fill="rgba(33, 26, 15, 1)"></circle><circle r="5" cx="45.05" cy="340.24" fill="rgba(33, 26, 15, 1)"></circle><circle r="5" cx="106.51" cy="534.83" fill="rgba(33, 26, 15, 1)"></circle><circle r="5" cx="96.59" cy="669.19" fill="rgba(33, 26, 15, 1)"></circle><circle r="5" cx="256.18" cy="360.99" fill="rgba(33, 26, 15, 1)"></circle><circle r="5" cx="215.85" cy="507.86" fill="rgba(33, 26, 15, 1)"></circle><circle r="5" cx="210.07" cy="705.31" fill="rgba(33, 26, 15, 1)"></circle><circle r="5" cx="363.25" cy="406.85" fill="rgba(33, 26, 15, 1)"></circle><circle r="5" cx="372.81" cy="507.82" fill="rgba(33, 26, 15, 1)"></circle><circle r="5" cx="392.87" cy="708.15" fill="rgba(33, 26, 15, 1)"></circle><circle r="5" cx="533.83" cy="406.32" fill="rgba(33, 26, 15, 1)"></circle><circle r="5" cx="549.85" cy="504.63" fill="rgba(33, 26, 15, 1)"></circle><circle r="5" cx="517.93" cy="705.33" fill="rgba(33, 26, 15, 1)"></circle><circle r="5" cx="689.24" cy="237.78" fill="rgba(33, 26, 15, 1)"></circle><circle r="5" cx="669.54" cy="389.36" fill="rgba(33, 26, 15, 1)"></circle><circle r="5" cx="693.1" cy="498.02" fill="rgba(33, 26, 15, 1)"></circle><circle r="5" cx="668.24" cy="645.36" fill="rgba(33, 26, 15, 1)"></circle><circle r="5" cx="840.52" cy="260.82" fill="rgba(33, 26, 15, 1)"></circle><circle r="5" cx="858.81" cy="365.17" fill="rgba(33, 26, 15, 1)"></circle><circle r="5" cx="826.95" cy="517.41" fill="rgba(33, 26, 15, 1)"></circle><circle r="5" cx="807.54" cy="676.34" fill="rgba(33, 26, 15, 1)"></circle><circle r="5" cx="1003.97" cy="-80.43" fill="rgba(33, 26, 15, 1)"></circle><circle r="5" cx="996.29" cy="88.72" fill="rgba(33, 26, 15, 1)"></circle><circle r="5" cx="995.86" cy="216.24" fill="rgba(33, 26, 15, 1)"></circle><circle r="5" cx="969.47" cy="398.97" fill="rgba(33, 26, 15, 1)"></circle><circle r="5" cx="941.37" cy="523.26" fill="rgba(33, 26, 15, 1)"></circle><circle r="5" cx="991.95" cy="654.37" fill="rgba(33, 26, 15, 1)"></circle><circle r="5" cx="1090.49" cy="-76.77" fill="rgba(33, 26, 15, 1)"></circle><circle r="5" cx="1110.5" cy="45.86" fill="rgba(33, 26, 15, 1)"></circle><circle r="5" cx="1104.03" cy="208.18" fill="rgba(33, 26, 15, 1)"></circle><circle r="5" cx="1125.69" cy="384.55" fill="rgba(33, 26, 15, 1)"></circle><circle r="5" cx="1143.97" cy="522.95" fill="rgba(33, 26, 15, 1)"></circle><circle r="5" cx="1128.37" cy="704.86" fill="rgba(33, 26, 15, 1)"></circle><circle r="5" cx="1278.09" cy="-85.44" fill="rgba(33, 26, 15, 1)"></circle><circle r="5" cx="1249.31" cy="100.48" fill="rgba(33, 26, 15, 1)"></circle><circle r="5" cx="1300.95" cy="198.63" fill="rgba(33, 26, 15, 1)"></circle><circle r="5" cx="1302.73" cy="382.48" fill="rgba(33, 26, 15, 1)"></circle><circle r="5" cx="1274.25" cy="490.85" fill="rgba(33, 26, 15, 1)"></circle><circle r="5" cx="1298.34" cy="700.54" fill="rgba(33, 26, 15, 1)"></circle><circle r="5" cx="1446.45" cy="-52.14" fill="rgba(33, 26, 15, 1)"></circle><circle r="5" cx="1453.55" cy="104.46" fill="rgba(33, 26, 15, 1)"></circle><circle r="5" cx="1417.01" cy="200.84" fill="rgba(33, 26, 15, 1)"></circle><circle r="5" cx="1415.91" cy="375.88" fill="rgba(33, 26, 15, 1)"></circle><circle r="5" cx="1422.78" cy="520.24" fill="rgba(33, 26, 15, 1)"></circle><circle r="5" cx="1416.99" cy="684.85" fill="rgba(33, 26, 15, 1)"></circle><circle r="5" cx="1543.95" cy="-98.76" fill="rgba(33, 26, 15, 1)"></circle><circle r="5" cx="1564.91" cy="54.34" fill="rgba(33, 26, 15, 1)"></circle><circle r="5" cx="1555.02" cy="193.47" fill="rgba(33, 26, 15, 1)"></circle><circle r="5" cx="1587.52" cy="345.65" fill="rgba(33, 26, 15, 1)"></circle><circle r="5" cx="1567.11" cy="525.93" fill="rgba(33, 26, 15, 1)"></circle><circle r="5" cx="1601.34" cy="708.4" fill="rgba(33, 26, 15, 1)"></circle><path d="M351.61 539.87L351.61 539.87" stroke="hsl(43.60000000000002, 50%, 22.4%)" stroke-width="1.5"></path><path d="M351.61 539.87L227.47 546.36" stroke="hsl(43.60000000000002, 50%, 22.4%)" stroke-width="1.5"></path><path d="M351.61 539.87L511.51 522.56" stroke="hsl(43.60000000000002, 50%, 22.4%)" stroke-width="1.5"></path><path d="M351.61 539.87L408.23 692.83" stroke="hsl(43.60000000000002, 50%, 22.4%)" stroke-width="1.5"></path><path d="M351.61 539.87L223.46 685.88" stroke="hsl(43.60000000000002, 50%, 22.4%)" stroke-width="1.5"></path><path d="M351.61 539.87L500.39 693.02" stroke="hsl(43.60000000000002, 50%, 22.4%)" stroke-width="1.5"></path><path d="M351.61 539.87L107.35 497.74" stroke="hsl(43.60000000000002, 50%, 22.4%)" stroke-width="1.5"></path><path d="M408.23 692.83L408.23 692.83" stroke="hsl(43.60000000000002, 50%, 22.4%)" stroke-width="1.5"></path><path d="M408.23 692.83L500.39 693.02" stroke="hsl(43.60000000000002, 50%, 22.4%)" stroke-width="1.5"></path><path d="M698.4 401.7L698.4 401.7" stroke="hsl(43.60000000000002, 50%, 22.4%)" stroke-width="1.5"></path><path d="M698.4 401.7L797.31 361.15" stroke="hsl(43.60000000000002, 50%, 22.4%)" stroke-width="1.5"></path><path d="M698.4 401.7L654.36 537.49" stroke="hsl(43.60000000000002, 50%, 22.4%)" stroke-width="1.5"></path><path d="M698.4 401.7L836.11 513.68" stroke="hsl(43.60000000000002, 50%, 22.4%)" stroke-width="1.5"></path><path d="M1248.18 58.67L1248.18 58.67" stroke="hsl(43.60000000000002, 50%, 22.4%)" stroke-width="1.5"></path><path d="M1248.18 58.67L1300.07 -73.53" stroke="hsl(43.60000000000002, 50%, 22.4%)" stroke-width="1.5"></path><path d="M1248.18 58.67L1306.41 223.69" stroke="hsl(43.60000000000002, 50%, 22.4%)" stroke-width="1.5"></path><path d="M1248.18 58.67L1446.64 79.3" stroke="hsl(43.60000000000002, 50%, 22.4%)" stroke-width="1.5"></path><path d="M1248.18 58.67L1422.2 -46.31" stroke="hsl(43.60000000000002, 50%, 22.4%)" stroke-width="1.5"></path><path d="M1306.41 223.69L1306.41 223.69" stroke="hsl(43.60000000000002, 50%, 22.4%)" stroke-width="1.5"></path><path d="M1306.41 223.69L1406.32 227.01" stroke="hsl(43.60000000000002, 50%, 22.4%)" stroke-width="1.5"></path><path d="M1306.41 223.69L1312.4 360.31" stroke="hsl(43.60000000000002, 50%, 22.4%)" stroke-width="1.5"></path><path d="M1306.41 223.69L1154.36 342.02" stroke="hsl(43.60000000000002, 50%, 22.4%)" stroke-width="1.5"></path><path d="M1265.77 667.3L1265.77 667.3" stroke="hsl(43.60000000000002, 50%, 22.4%)" stroke-width="1.5"></path><path d="M1265.77 667.3L1292.01 522.99" stroke="hsl(43.60000000000002, 50%, 22.4%)" stroke-width="1.5"></path><path d="M1265.77 667.3L1423.57 707.09" stroke="hsl(43.60000000000002, 50%, 22.4%)" stroke-width="1.5"></path><path d="M1265.77 667.3L1414.22 538.02" stroke="hsl(43.60000000000002, 50%, 22.4%)" stroke-width="1.5"></path><path d="M1265.77 667.3L1096.09 558.56" stroke="hsl(43.60000000000002, 50%, 22.4%)" stroke-width="1.5"></path><path d="M1265.77 667.3L1312.4 360.31" stroke="hsl(43.60000000000002, 50%, 22.4%)" stroke-width="1.5"></path><path d="M1572.96 408.78L1572.96 408.78" stroke="hsl(43.60000000000002, 50%, 22.4%)" stroke-width="1.5"></path><path d="M1572.96 408.78L1589.64 502.28" stroke="hsl(43.60000000000002, 50%, 22.4%)" stroke-width="1.5"></path><path d="M1572.96 408.78L1456.69 389.04" stroke="hsl(43.60000000000002, 50%, 22.4%)" stroke-width="1.5"></path><path d="M1572.96 408.78L1414.22 538.02" stroke="hsl(43.60000000000002, 50%, 22.4%)" stroke-width="1.5"></path><path d="M1572.96 408.78L1406.32 227.01" stroke="hsl(43.60000000000002, 50%, 22.4%)" stroke-width="1.5"></path><path d="M1572.96 408.78L1312.4 360.31" stroke="hsl(43.60000000000002, 50%, 22.4%)" stroke-width="1.5"></path><path d="M1611.41 688.08L1611.41 688.08" stroke="hsl(43.60000000000002, 50%, 22.4%)" stroke-width="1.5"></path><path d="M1611.41 688.08L1589.64 502.28" stroke="hsl(43.60000000000002, 50%, 22.4%)" stroke-width="1.5"></path><path d="M1611.41 688.08L1423.57 707.09" stroke="hsl(43.60000000000002, 50%, 22.4%)" stroke-width="1.5"></path><path d="M1611.41 688.08L1414.22 538.02" stroke="hsl(43.60000000000002, 50%, 22.4%)" stroke-width="1.5"></path><path d="M-107.91 488.32L-107.91 488.32" stroke="hsl(43.60000000000002, 50%, 22.4%)" stroke-width="1.5"></path><path d="M-107.91 488.32L-65.34 656.38" stroke="hsl(43.60000000000002, 50%, 22.4%)" stroke-width="1.5"></path><path d="M-107.91 488.32L107.35 497.74" stroke="hsl(43.60000000000002, 50%, 22.4%)" stroke-width="1.5"></path><path d="M-107.91 488.32L83.15 655.36" stroke="hsl(43.60000000000002, 50%, 22.4%)" stroke-width="1.5"></path><path d="M-107.91 488.32L227.47 546.36" stroke="hsl(43.60000000000002, 50%, 22.4%)" stroke-width="1.5"></path><path d="M-65.34 656.38L-65.34 656.38" stroke="hsl(43.60000000000002, 50%, 22.4%)" stroke-width="1.5"></path><path d="M-65.34 656.38L83.15 655.36" stroke="hsl(43.60000000000002, 50%, 22.4%)" stroke-width="1.5"></path><path d="M-65.34 656.38L107.35 497.74" stroke="hsl(43.60000000000002, 50%, 22.4%)" stroke-width="1.5"></path><path d="M-65.34 656.38L223.46 685.88" stroke="hsl(43.60000000000002, 50%, 22.4%)" stroke-width="1.5"></path><path d="M-65.34 656.38L227.47 546.36" stroke="hsl(43.60000000000002, 50%, 22.4%)" stroke-width="1.5"></path><path d="M-65.34 656.38L351.61 539.87" stroke="hsl(43.60000000000002, 50%, 22.4%)" stroke-width="1.5"></path><path d="M107.35 497.74L107.35 497.74" stroke="hsl(43.60000000000002, 50%, 22.4%)" stroke-width="1.5"></path><path d="M107.35 497.74L227.47 546.36" stroke="hsl(43.60000000000002, 50%, 22.4%)" stroke-width="1.5"></path><path d="M107.35 497.74L83.15 655.36" stroke="hsl(43.60000000000002, 50%, 22.4%)" stroke-width="1.5"></path><path d="M107.35 497.74L223.46 685.88" stroke="hsl(43.60000000000002, 50%, 22.4%)" stroke-width="1.5"></path><path d="M83.15 655.36L83.15 655.36" stroke="hsl(43.60000000000002, 50%, 22.4%)" stroke-width="1.5"></path><path d="M83.15 655.36L223.46 685.88" stroke="hsl(43.60000000000002, 50%, 22.4%)" stroke-width="1.5"></path><path d="M83.15 655.36L227.47 546.36" stroke="hsl(43.60000000000002, 50%, 22.4%)" stroke-width="1.5"></path><path d="M83.15 655.36L351.61 539.87" stroke="hsl(43.60000000000002, 50%, 22.4%)" stroke-width="1.5"></path><path d="M227.47 546.36L227.47 546.36" stroke="hsl(43.60000000000002, 50%, 22.4%)" stroke-width="1.5"></path><path d="M227.47 546.36L223.46 685.88" stroke="hsl(43.60000000000002, 50%, 22.4%)" stroke-width="1.5"></path><path d="M223.46 685.88L223.46 685.88" stroke="hsl(43.60000000000002, 50%, 22.4%)" stroke-width="1.5"></path><path d="M223.46 685.88L408.23 692.83" stroke="hsl(43.60000000000002, 50%, 22.4%)" stroke-width="1.5"></path><path d="M511.51 522.56L511.51 522.56" stroke="hsl(43.60000000000002, 50%, 22.4%)" stroke-width="1.5"></path><path d="M511.51 522.56L654.36 537.49" stroke="hsl(43.60000000000002, 50%, 22.4%)" stroke-width="1.5"></path><path d="M511.51 522.56L500.39 693.02" stroke="hsl(43.60000000000002, 50%, 22.4%)" stroke-width="1.5"></path><path d="M500.39 693.02L500.39 693.02" stroke="hsl(43.60000000000002, 50%, 22.4%)" stroke-width="1.5"></path><path d="M500.39 693.02L654.36 537.49" stroke="hsl(43.60000000000002, 50%, 22.4%)" stroke-width="1.5"></path><path d="M500.39 693.02L223.46 685.88" stroke="hsl(43.60000000000002, 50%, 22.4%)" stroke-width="1.5"></path><path d="M654.36 537.49L654.36 537.49" stroke="hsl(43.60000000000002, 50%, 22.4%)" stroke-width="1.5"></path><path d="M654.36 537.49L836.11 513.68" stroke="hsl(43.60000000000002, 50%, 22.4%)" stroke-width="1.5"></path><path d="M654.36 537.49L820.78 665.92" stroke="hsl(43.60000000000002, 50%, 22.4%)" stroke-width="1.5"></path><path d="M654.36 537.49L797.31 361.15" stroke="hsl(43.60000000000002, 50%, 22.4%)" stroke-width="1.5"></path><path d="M797.31 361.15L797.31 361.15" stroke="hsl(43.60000000000002, 50%, 22.4%)" stroke-width="1.5"></path><path d="M797.31 361.15L836.11 513.68" stroke="hsl(43.60000000000002, 50%, 22.4%)" stroke-width="1.5"></path><path d="M797.31 361.15L1000.37 396.65" stroke="hsl(43.60000000000002, 50%, 22.4%)" stroke-width="1.5"></path><path d="M797.31 361.15L964.73 522.79" stroke="hsl(43.60000000000002, 50%, 22.4%)" stroke-width="1.5"></path><path d="M836.11 513.68L836.11 513.68" stroke="hsl(43.60000000000002, 50%, 22.4%)" stroke-width="1.5"></path><path d="M836.11 513.68L964.73 522.79" stroke="hsl(43.60000000000002, 50%, 22.4%)" stroke-width="1.5"></path><path d="M836.11 513.68L820.78 665.92" stroke="hsl(43.60000000000002, 50%, 22.4%)" stroke-width="1.5"></path><path d="M820.78 665.92L820.78 665.92" stroke="hsl(43.60000000000002, 50%, 22.4%)" stroke-width="1.5"></path><path d="M820.78 665.92L964.73 522.79" stroke="hsl(43.60000000000002, 50%, 22.4%)" stroke-width="1.5"></path><path d="M820.78 665.92L698.4 401.7" stroke="hsl(43.60000000000002, 50%, 22.4%)" stroke-width="1.5"></path><path d="M820.78 665.92L1096.09 558.56" stroke="hsl(43.60000000000002, 50%, 22.4%)" stroke-width="1.5"></path><path d="M820.78 665.92L797.31 361.15" stroke="hsl(43.60000000000002, 50%, 22.4%)" stroke-width="1.5"></path><path d="M1000.37 396.65L1000.37 396.65" stroke="hsl(43.60000000000002, 50%, 22.4%)" stroke-width="1.5"></path><path d="M1000.37 396.65L964.73 522.79" stroke="hsl(43.60000000000002, 50%, 22.4%)" stroke-width="1.5"></path><path d="M1000.37 396.65L1154.36 342.02" stroke="hsl(43.60000000000002, 50%, 22.4%)" stroke-width="1.5"></path><path d="M964.73 522.79L964.73 522.79" stroke="hsl(43.60000000000002, 50%, 22.4%)" stroke-width="1.5"></path><path d="M1105.22 242.92L1105.22 242.92" stroke="hsl(43.60000000000002, 50%, 22.4%)" stroke-width="1.5"></path><path d="M1105.22 242.92L1154.36 342.02" stroke="hsl(43.60000000000002, 50%, 22.4%)" stroke-width="1.5"></path><path d="M1154.36 342.02L1154.36 342.02" stroke="hsl(43.60000000000002, 50%, 22.4%)" stroke-width="1.5"></path><path d="M1154.36 342.02L1312.4 360.31" stroke="hsl(43.60000000000002, 50%, 22.4%)" stroke-width="1.5"></path><path d="M1096.09 558.56L1096.09 558.56" stroke="hsl(43.60000000000002, 50%, 22.4%)" stroke-width="1.5"></path><path d="M1096.09 558.56L964.73 522.79" stroke="hsl(43.60000000000002, 50%, 22.4%)" stroke-width="1.5"></path><path d="M1096.09 558.56L1000.37 396.65" stroke="hsl(43.60000000000002, 50%, 22.4%)" stroke-width="1.5"></path><path d="M1096.09 558.56L1292.01 522.99" stroke="hsl(43.60000000000002, 50%, 22.4%)" stroke-width="1.5"></path><path d="M1300.07 -73.53L1300.07 -73.53" stroke="hsl(43.60000000000002, 50%, 22.4%)" stroke-width="1.5"></path><path d="M1300.07 -73.53L1422.2 -46.31" stroke="hsl(43.60000000000002, 50%, 22.4%)" stroke-width="1.5"></path><path d="M1300.07 -73.53L1446.64 79.3" stroke="hsl(43.60000000000002, 50%, 22.4%)" stroke-width="1.5"></path><path d="M1300.07 -73.53L1578.93 -42.45" stroke="hsl(43.60000000000002, 50%, 22.4%)" stroke-width="1.5"></path><path d="M1300.07 -73.53L1306.41 223.69" stroke="hsl(43.60000000000002, 50%, 22.4%)" stroke-width="1.5"></path><path d="M1312.4 360.31L1312.4 360.31" stroke="hsl(43.60000000000002, 50%, 22.4%)" stroke-width="1.5"></path><path d="M1292.01 522.99L1292.01 522.99" stroke="hsl(43.60000000000002, 50%, 22.4%)" stroke-width="1.5"></path><path d="M1292.01 522.99L1414.22 538.02" stroke="hsl(43.60000000000002, 50%, 22.4%)" stroke-width="1.5"></path><path d="M1292.01 522.99L1312.4 360.31" stroke="hsl(43.60000000000002, 50%, 22.4%)" stroke-width="1.5"></path><path d="M1422.2 -46.31L1422.2 -46.31" stroke="hsl(43.60000000000002, 50%, 22.4%)" stroke-width="1.5"></path><path d="M1422.2 -46.31L1446.64 79.3" stroke="hsl(43.60000000000002, 50%, 22.4%)" stroke-width="1.5"></path><path d="M1422.2 -46.31L1578.93 -42.45" stroke="hsl(43.60000000000002, 50%, 22.4%)" stroke-width="1.5"></path><path d="M1422.2 -46.31L1595.05 49.07" stroke="hsl(43.60000000000002, 50%, 22.4%)" stroke-width="1.5"></path><path d="M1446.64 79.3L1446.64 79.3" stroke="hsl(43.60000000000002, 50%, 22.4%)" stroke-width="1.5"></path><path d="M1446.64 79.3L1595.05 49.07" stroke="hsl(43.60000000000002, 50%, 22.4%)" stroke-width="1.5"></path><path d="M1406.32 227.01L1406.32 227.01" stroke="hsl(43.60000000000002, 50%, 22.4%)" stroke-width="1.5"></path><path d="M1406.32 227.01L1446.64 79.3" stroke="hsl(43.60000000000002, 50%, 22.4%)" stroke-width="1.5"></path><path d="M1406.32 227.01L1312.4 360.31" stroke="hsl(43.60000000000002, 50%, 22.4%)" stroke-width="1.5"></path><path d="M1406.32 227.01L1456.69 389.04" stroke="hsl(43.60000000000002, 50%, 22.4%)" stroke-width="1.5"></path><path d="M1456.69 389.04L1456.69 389.04" stroke="hsl(43.60000000000002, 50%, 22.4%)" stroke-width="1.5"></path><path d="M1456.69 389.04L1312.4 360.31" stroke="hsl(43.60000000000002, 50%, 22.4%)" stroke-width="1.5"></path><path d="M1456.69 389.04L1414.22 538.02" stroke="hsl(43.60000000000002, 50%, 22.4%)" stroke-width="1.5"></path><path d="M1414.22 538.02L1414.22 538.02" stroke="hsl(43.60000000000002, 50%, 22.4%)" stroke-width="1.5"></path><path d="M1414.22 538.02L1423.57 707.09" stroke="hsl(43.60000000000002, 50%, 22.4%)" stroke-width="1.5"></path><path d="M1423.57 707.09L1423.57 707.09" stroke="hsl(43.60000000000002, 50%, 22.4%)" stroke-width="1.5"></path><path d="M1423.57 707.09L1292.01 522.99" stroke="hsl(43.60000000000002, 50%, 22.4%)" stroke-width="1.5"></path><path d="M1578.93 -42.45L1578.93 -42.45" stroke="hsl(43.60000000000002, 50%, 22.4%)" stroke-width="1.5"></path><path d="M1578.93 -42.45L1595.05 49.07" stroke="hsl(43.60000000000002, 50%, 22.4%)" stroke-width="1.5"></path><path d="M1578.93 -42.45L1446.64 79.3" stroke="hsl(43.60000000000002, 50%, 22.4%)" stroke-width="1.5"></path><path d="M1595.05 49.07L1595.05 49.07" stroke="hsl(43.60000000000002, 50%, 22.4%)" stroke-width="1.5"></path><path d="M1589.64 502.28L1589.64 502.28" stroke="hsl(43.60000000000002, 50%, 22.4%)" stroke-width="1.5"></path><path d="M1589.64 502.28L1456.69 389.04" stroke="hsl(43.60000000000002, 50%, 22.4%)" stroke-width="1.5"></path><path d="M1589.64 502.28L1414.22 538.02" stroke="hsl(43.60000000000002, 50%, 22.4%)" stroke-width="1.5"></path><path d="M1589.64 502.28L1423.57 707.09" stroke="hsl(43.60000000000002, 50%, 22.4%)" stroke-width="1.5"></path><path d="M1589.64 502.28L1292.01 522.99" stroke="hsl(43.60000000000002, 50%, 22.4%)" stroke-width="1.5"></path><circle r="25" cx="351.61" cy="539.87" fill="url(#SvgjsRadialGradient1015)"></circle><circle r="25" cx="408.23" cy="692.83" fill="url(#SvgjsRadialGradient1015)"></circle><circle r="25" cx="698.4" cy="401.7" fill="url(#SvgjsRadialGradient1015)"></circle><circle r="25" cx="1248.18" cy="58.67" fill="url(#SvgjsRadialGradient1015)"></circle><circle r="25" cx="1306.41" cy="223.69" fill="url(#SvgjsRadialGradient1015)"></circle><circle r="25" cx="1265.77" cy="667.3" fill="url(#SvgjsRadialGradient1015)"></circle><circle r="25" cx="1572.96" cy="408.78" fill="url(#SvgjsRadialGradient1015)"></circle><circle r="25" cx="1611.41" cy="688.08" fill="url(#SvgjsRadialGradient1015)"></circle><circle r="5" cx="-107.91" cy="488.32" fill="#a19b8b"></circle><circle r="5" cx="-65.34" cy="656.38" fill="#a19b8b"></circle><circle r="5" cx="107.35" cy="497.74" fill="#a19b8b"></circle><circle r="5" cx="83.15" cy="655.36" fill="#a19b8b"></circle><circle r="5" cx="227.47" cy="546.36" fill="#a19b8b"></circle><circle r="5" cx="223.46" cy="685.88" fill="#a19b8b"></circle><circle r="5" cx="511.51" cy="522.56" fill="#a19b8b"></circle><circle r="5" cx="500.39" cy="693.02" fill="#a19b8b"></circle><circle r="5" cx="654.36" cy="537.49" fill="#a19b8b"></circle><circle r="5" cx="797.31" cy="361.15" fill="#a19b8b"></circle><circle r="5" cx="836.11" cy="513.68" fill="#a19b8b"></circle><circle r="5" cx="820.78" cy="665.92" fill="#a19b8b"></circle><circle r="5" cx="1000.37" cy="396.65" fill="#a19b8b"></circle><circle r="5" cx="964.73" cy="522.79" fill="#a19b8b"></circle><circle r="5" cx="1105.22" cy="242.92" fill="#a19b8b"></circle><circle r="5" cx="1154.36" cy="342.02" fill="#a19b8b"></circle><circle r="5" cx="1096.09" cy="558.56" fill="#a19b8b"></circle><circle r="5" cx="1300.07" cy="-73.53" fill="#a19b8b"></circle><circle r="5" cx="1312.4" cy="360.31" fill="#a19b8b"></circle><circle r="5" cx="1292.01" cy="522.99" fill="#a19b8b"></circle><circle r="5" cx="1422.2" cy="-46.31" fill="#a19b8b"></circle><circle r="5" cx="1446.64" cy="79.3" fill="#a19b8b"></circle><circle r="5" cx="1406.32" cy="227.01" fill="#a19b8b"></circle><circle r="5" cx="1456.69" cy="389.04" fill="#a19b8b"></circle><circle r="5" cx="1414.22" cy="538.02" fill="#a19b8b"></circle><circle r="5" cx="1423.57" cy="707.09" fill="#a19b8b"></circle><circle r="5" cx="1578.93" cy="-42.45" fill="#a19b8b"></circle><circle r="5" cx="1595.05" cy="49.07" fill="#a19b8b"></circle><circle r="5" cx="1589.64" cy="502.28" fill="#a19b8b"></circle></g><defs><mask id="SvgjsMask1014"><rect width="1440" height="560" fill="#ffffff"></rect></mask><radialGradient id="SvgjsRadialGradient1015"><stop stop-color="#ffffff" offset="0.1"></stop><stop stop-color="rgba(66, 54, 22, 1)" offset="0.2"></stop><stop stop-color="rgba(66, 54, 22, 0)" offset="1"></stop></radialGradient></defs></svg>